<?xml version="1.0" encoding="UTF-8"?>
<svg version="1.1" xmlns="http://www.w3.org/2000/svg" width="900" height="220">
<path d="M0 0 C297 0 594 0 900 0 C900 72.6 900 145.2 900 220 C603 220 306 220 0 220 C0 147.4 0 74.8 0 0 Z " fill="#FEFEFE" transform="translate(0,0)"/>
<path d="M0 0 C192.39 0 384.78 0 583 0 C583 48.18 583 96.36 583 146 C390.61 146 198.22 146 0 146 C0 97.82 0 49.64 0 0 Z " fill="#1B1B1B" transform="translate(0,0)"/>
<path d="M0 0 C3.67125 -0.061875 7.3425 -0.12375 11.125 -0.1875 C12.84420654 -0.22846802 12.84420654 -0.22846802 14.59814453 -0.27026367 C21.18239113 -0.32394901 25.78864776 0.09833791 30.86328125 4.68359375 C31.34152344 5.26238281 31.81976563 5.84117188 32.3125 6.4375 C33.04919922 7.30181641 33.04919922 7.30181641 33.80078125 8.18359375 C37.18005085 13.30203142 36.52027006 20.13376654 36 26 C34.51271004 31.70285704 31.16895386 35.35187195 26.47851562 38.76513672 C21.70686659 41.14250087 16.70684617 40.61600503 11.5 40.375 C5.8075 40.189375 5.8075 40.189375 0 40 C0 26.8 0 13.6 0 0 Z " fill="#E5DDD3" transform="translate(215,84)"/>
<path d="M0 0 C6.001875 -0.0928125 6.001875 -0.0928125 12.125 -0.1875 C13.37555176 -0.21481201 14.62610352 -0.24212402 15.91455078 -0.27026367 C26.18585071 -0.34721154 26.18585071 -0.34721154 31 3 C33.38224928 5.38224928 33.32017149 6.0502037 33.375 9.3125 C33.30419139 13.70263354 32.21299042 15.88741553 29 19 C29.78375 19.433125 30.5675 19.86625 31.375 20.3125 C34 22 34 22 36 25 C36.47824275 29.22447761 36.25508999 31.4992678 34.3125 35.3125 C31.80055884 38.23178297 30.61160093 38.89331714 27 40 C23.95385742 40.22705078 23.95385742 40.22705078 20.60546875 40.1953125 C19.52160889 40.19031738 18.43774902 40.18532227 17.32104492 40.18017578 C15.9569751 40.16196777 14.59290527 40.14375977 13.1875 40.125 C8.835625 40.08375 4.48375 40.0425 0 40 C0 26.8 0 13.6 0 0 Z " fill="#E5DDD3" transform="translate(8,84)"/>
<path d="M0 0 C5.754375 -0.061875 5.754375 -0.061875 11.625 -0.125 C12.82334473 -0.14320801 14.02168945 -0.16141602 15.25634766 -0.18017578 C22.03773146 -0.2154777 27.16042074 0.02464051 32.875 4 C35.51162468 7.72229367 35.71364523 10.07872036 35.5 14.55859375 C34.69129145 18.50736595 32.89463732 20.24320255 30 23 C29.34 23.66 28.68 24.32 28 25 C28.97453125 26.48113281 28.97453125 26.48113281 29.96875 27.9921875 C30.81273833 29.28630293 31.65647535 30.58058229 32.5 31.875 C32.92925781 32.52597656 33.35851562 33.17695312 33.80078125 33.84765625 C37 38.7734375 37 38.7734375 37 41 C33.81047043 41.6509244 31.16871433 41.82487167 28 41 C23.5188553 36.66990513 20.43595559 31.0629236 19 25 C15.37 25 11.74 25 8 25 C8 30.28 8 35.56 8 41 C5.36 41 2.72 41 0 41 C0 27.47 0 13.94 0 0 Z " fill="#E5DDD2" transform="translate(83,24)"/>
<path d="M0 0 C5.754375 -0.12375 5.754375 -0.12375 11.625 -0.25 C12.82334473 -0.28641602 14.02168945 -0.32283203 15.25634766 -0.36035156 C22.95595937 -0.44051545 26.19489385 0.57540446 31.875 5.6875 C33.67123678 9.37976449 33.53988115 12.97608585 33 17 C31.52406483 20.23300086 29.73407055 22.72160787 27 25 C23.23699626 26.25433458 19.72789091 26.10695422 15.8125 26.0625 C15.06291016 26.05798828 14.31332031 26.05347656 13.54101562 26.04882812 C11.69397617 26.03706354 9.84697787 26.01912865 8 26 C8 30.95 8 35.9 8 41 C5.36 41 2.72 41 0 41 C0 27.47 0 13.94 0 0 Z " fill="#E5DDD2" transform="translate(8,24)"/>
<path d="M0 0 C2.97 0 5.94 0 9 0 C9 5.61 9 11.22 9 17 C14.61 17 20.22 17 26 17 C26 11.39 26 5.78 26 0 C28.97 0 31.94 0 35 0 C35 13.86 35 27.72 35 42 C32.03 42 29.06 42 26 42 C26 36.06 26 30.12 26 24 C20.39 24 14.78 24 9 24 C9 29.94 9 35.88 9 42 C6.03 42 3.06 42 0 42 C0 28.14 0 14.28 0 0 Z " fill="#DCD4CA" transform="translate(49,83)"/>
<path d="M0 0 C3.45256896 2.09988336 6.42418327 4.43094155 8.40625 8.0234375 C8.40625 8.6834375 8.40625 9.3434375 8.40625 10.0234375 C3.14640748 11.77671834 3.14640748 11.77671834 0.40625 12.0234375 C-1.96875 10.2109375 -1.96875 10.2109375 -3.59375 8.0234375 C-6.78498774 6.42781863 -10.12120091 6.6435233 -13.59375 7.0234375 C-17.17927881 8.66030935 -18.38690055 9.71316333 -20.59375 13.0234375 C-21.23119498 18.57513858 -21.90272408 24.91431288 -18.71875 29.7734375 C-16.35118359 32.28027252 -15.53674541 32.95907432 -12.1328125 33.19140625 C-11.17117187 33.19785156 -10.20953125 33.20429687 -9.21875 33.2109375 C-8.26226562 33.22511719 -7.30578125 33.23929688 -6.3203125 33.25390625 C-3.51436993 33.01672772 -1.89616738 32.63088558 0.40625 31.0234375 C1.22209568 27.96435337 1.22209568 27.96435337 1.40625 25.0234375 C-1.89375 25.0234375 -5.19375 25.0234375 -8.59375 25.0234375 C-8.59375 23.0434375 -8.59375 21.0634375 -8.59375 19.0234375 C-2.65375 19.0234375 3.28625 19.0234375 9.40625 19.0234375 C9.5609375 22.6121875 9.5609375 22.6121875 9.71875 26.2734375 C9.76427002 27.02012695 9.80979004 27.76681641 9.85668945 28.53613281 C9.93346415 32.21933698 9.71026582 33.70474505 7.140625 36.3984375 C-0.40577431 40.88315481 -7.86982753 41.93321799 -16.59375 41.0234375 C-22.75064824 38.89650902 -26.46785239 35.23640866 -29.40625 29.4609375 C-31.60509517 22.7759427 -31.88666601 15.09677833 -29.03125 8.5859375 C-23.27176721 -1.28746157 -10.32597034 -3.88779004 0 0 Z " fill="#E0D9CE" transform="translate(157.59375,83.9765625)"/>
<path d="M0 0 C10.89 0 21.78 0 33 0 C33 2.31 33 4.62 33 7 C25.08 7 17.16 7 9 7 C9 10.63 9 14.26 9 18 C16.26 18 23.52 18 31 18 C31 19.98 31 21.96 31 24 C23.74 24 16.48 24 9 24 C9 27.63 9 31.26 9 35 C17.25 35 25.5 35 34 35 C34 37.31 34 39.62 34 42 C22.78 42 11.56 42 0 42 C0 28.14 0 14.28 0 0 Z " fill="#DBD4C9" transform="translate(90,83)"/>
<path d="M0 0 C3.63 0 7.26 0 11 0 C14.20198278 7.91518173 17.25965849 15.87757502 20.25 23.875 C20.93835938 25.68871094 20.93835938 25.68871094 21.640625 27.5390625 C22.07375 28.69921875 22.506875 29.859375 22.953125 31.0546875 C23.34661133 32.10124512 23.74009766 33.14780273 24.14550781 34.22607422 C25 37 25 37 25 41 C22.36 41 19.72 41 17 41 C15.515 36.05 15.515 36.05 14 31 C8.72 31 3.44 31 -2 31 C-2.99 34.3 -3.98 37.6 -5 41 C-7.97 41 -10.94 41 -14 41 C-11.75137198 31.85991063 -8.59790122 23.11535282 -5.3125 14.3125 C-4.79579464 12.91747665 -4.27951574 11.52229526 -3.76367188 10.12695312 C-2.51401467 6.74947007 -1.25863864 3.37414799 0 0 Z " fill="#DFD8CD" transform="translate(53,24)"/>
<path d="M0 0 C10.56 0 21.12 0 32 0 C32 2.31 32 4.62 32 7 C24.41 7 16.82 7 9 7 C9 10.63 9 14.26 9 18 C15.93 18 22.86 18 30 18 C30 19.98 30 21.96 30 24 C23.07 24 16.14 24 9 24 C9 27.63 9 31.26 9 35 C17.25 35 25.5 35 34 35 C34 37.31 34 39.62 34 42 C22.78 42 11.56 42 0 42 C0 28.14 0 14.28 0 0 Z " fill="#DDD5CB" transform="translate(256,83)"/>
<path d="M0 0 C3.63 0 7.26 0 11 0 C19.65911618 22.97778543 19.65911618 22.97778543 23.0625 32.3125 C23.44535156 33.36050781 23.82820313 34.40851562 24.22265625 35.48828125 C25 38 25 38 25 41 C22.36 41 19.72 41 17 41 C15.515 36.05 15.515 36.05 14 31 C8.39 31 2.78 31 -3 31 C-3.309375 32.464375 -3.61875 33.92875 -3.9375 35.4375 C-4.875 39.875 -4.875 39.875 -6 41 C-8.67058851 41.14115161 -11.32432238 41.04247107 -14 41 C-13.25260173 36.32573081 -11.68056944 32.06145627 -10.05859375 27.63671875 C-9.77146011 26.84473587 -9.48432648 26.05275299 -9.18849182 25.23677063 C-8.27484592 22.71911439 -7.35624841 20.20329813 -6.4375 17.6875 C-5.81542712 15.97603068 -5.19367868 14.26444339 -4.57226562 12.55273438 C-3.05193204 8.36711377 -1.52715646 4.18313579 0 0 Z " fill="#DFD8CD" transform="translate(136,24)"/>
<path d="M0 0 C3.63 0 7.26 0 11 0 C14.52936192 8.26748603 17.7735806 16.60307878 20.8125 25.0625 C21.42254883 26.7321582 21.42254883 26.7321582 22.04492188 28.43554688 C22.42841797 29.49966797 22.81191406 30.56378906 23.20703125 31.66015625 C23.5522583 32.61543213 23.89748535 33.57070801 24.25317383 34.55493164 C25 37 25 37 25 40 C22.36 40 19.72 40 17 40 C15.515 35.05 15.515 35.05 14 30 C8.72 30.33 3.44 30.66 -2 31 C-2.99 33.97 -3.98 36.94 -5 40 C-7.97 40 -10.94 40 -14 40 C-11.27182164 30.75139819 -8.14435193 21.71114778 -4.75 12.6875 C-4.29109375 11.45837891 -3.8321875 10.22925781 -3.359375 8.96289062 C-2.24290217 5.97399983 -1.12307434 2.9864151 0 0 Z " fill="#E0D8CE" transform="translate(185,84)"/>
<path d="M0 0 C3.36658808 2.8428966 5.14970713 4.702821 6 9 C4.56344146 9.08131463 3.1255517 9.13933559 1.6875 9.1875 C0.88699219 9.22230469 0.08648437 9.25710937 -0.73828125 9.29296875 C-3 9 -3 9 -4.47265625 7.50390625 C-5.9389317 5.75900254 -5.9389317 5.75900254 -8.4453125 5.671875 C-9.32960937 5.69765625 -10.21390625 5.7234375 -11.125 5.75 C-12.01445312 5.76546875 -12.90390625 5.7809375 -13.8203125 5.796875 C-15.97669378 5.76387869 -15.97669378 5.76387869 -17 7 C-17.04063832 8.66617115 -17.042721 10.33388095 -17 12 C-16.47792969 12.17015625 -15.95585937 12.3403125 -15.41796875 12.515625 C-13.84925895 13.03211789 -12.28305455 13.5562521 -10.71875 14.0859375 C-8.85000187 14.71422351 -6.97446107 15.32254854 -5.09375 15.9140625 C-0.95502563 17.28251169 2.32284775 18.43308184 5.6875 21.25 C7.4350296 24.91149059 7.89149417 28.07281449 7 32 C4.69408321 36.29996778 1.6174957 38.5837093 -3 40 C-6.55859375 40.30078125 -6.55859375 40.30078125 -10.4375 40.3125 C-11.71496094 40.32925781 -12.99242187 40.34601563 -14.30859375 40.36328125 C-19.53228263 39.84920393 -22.77182838 38.29281224 -26.375 34.5 C-28 32 -28 32 -28 29 C-25.11138291 27.55569145 -23.20352299 27.62311494 -20 28 C-19.236875 28.825 -18.47375 29.65 -17.6875 30.5 C-14.72290261 33.25776501 -14.20568313 33.36262299 -10.375 33.375 C-7.59383084 33.25160342 -5.67703231 32.8923441 -3 32 C-3 30.02 -3 28.04 -3 26 C-6.86872123 24.18910921 -10.35980486 22.85317654 -14.5625 22.0625 C-18.87634817 21.18498217 -21.56670387 19.74663691 -25 17 C-26.86091735 13.2781653 -26.5680311 9.05280619 -26 5 C-20.02173011 -3.19877013 -8.89068929 -4.34196454 0 0 Z " fill="#E0D9CE" transform="translate(192,25)"/>
<path d="M0 0 C11.60714286 0 11.60714286 0 16 3 C19.16881262 6.32043045 19.43222847 8.85202862 19.4375 13.375 C19.30610833 18.94976078 18.90028005 21.99137883 15 26 C11 28 11 28 0 28 C0 18.76 0 9.52 0 0 Z " fill="#202020" transform="translate(223,90)"/>
<path d="M0 0 C28.71 0 57.42 0 87 0 C87 1.65 87 3.3 87 5 C58.29 5 29.58 5 0 5 C0 3.35 0 1.7 0 0 Z " fill="#CB3232" transform="translate(4,134)"/>
<path d="M0 0 C2.60478883 -0.0809313 5.20706653 -0.14045434 7.8125 -0.1875 C8.55048828 -0.21263672 9.28847656 -0.23777344 10.04882812 -0.26367188 C15.47158839 -0.33728401 15.47158839 -0.33728401 18.01953125 1.2890625 C19.73344602 4.27987791 18.81468896 6.79943623 18 10 C14.31912647 12.45391569 11.55644412 12.22802759 7.3125 12.125 C6.2596582 12.11146484 6.2596582 12.11146484 5.18554688 12.09765625 C3.45688475 12.07413704 1.72839855 12.03826713 0 12 C0 8.04 0 4.08 0 0 Z " fill="#1E1E1D" transform="translate(91,31)"/>
<path d="M0 0 C2.41734542 -0.08117951 4.83194949 -0.14056926 7.25 -0.1875 C7.93191406 -0.21263672 8.61382812 -0.23777344 9.31640625 -0.26367188 C12.4646348 -0.30951986 14.65818351 -0.18451559 17.453125 1.32421875 C19 3 19 3 19.5 6 C19 9 19 9 17.453125 10.67578125 C14.0769293 12.49828179 10.9789607 12.32495696 7.25 12.1875 C6.55261719 12.17396484 5.85523438 12.16042969 5.13671875 12.14648438 C3.42414459 12.1112945 1.71197059 12.05749155 0 12 C0 8.04 0 4.08 0 0 Z " fill="#1C1C1C" transform="translate(16,106)"/>
<path d="M0 0 C12.625 -0.25 12.625 -0.25 16 2 C16.61650485 7.54854369 16.61650485 7.54854369 16 10 C13.69275725 12.45591949 12.3554844 12.9654646 8.984375 13.29296875 C7.91703125 13.25816406 6.8496875 13.22335938 5.75 13.1875 C2.90375 13.0946875 2.90375 13.0946875 0 13 C0 8.71 0 4.42 0 0 Z " fill="#1B1B1B" transform="translate(16,31)"/>
<path d="M0 0 C2.27024968 -0.08097324 4.54132075 -0.13917704 6.8125 -0.1875 C8.07707031 -0.22230469 9.34164063 -0.25710937 10.64453125 -0.29296875 C14 0 14 0 15.9609375 1.3515625 C17 3 17 3 16.8125 5.5625 C16 8 16 8 14 10 C10.7421875 10.1953125 10.7421875 10.1953125 6.875 10.125 C4.95300781 10.09792969 4.95300781 10.09792969 2.9921875 10.0703125 C1.51105469 10.03550781 1.51105469 10.03550781 0 10 C0 6.7 0 3.4 0 0 Z " fill="#212120" transform="translate(16,90)"/>
<path d="M0 0 C2.58110119 2.26298228 3.64929044 4.18004885 4.6875 7.4375 C5.06455078 8.58025391 5.06455078 8.58025391 5.44921875 9.74609375 C6 12 6 12 6 16 C2.37 16 -1.26 16 -5 16 C-2.05357143 4.88392857 -2.05357143 4.88392857 0 0 Z " fill="#282827" transform="translate(58,32)"/>
<path d="M0 0 C2.48659621 2.48659621 3.0343111 4.60483946 4.125 7.9375 C4.47820312 8.99839844 4.83140625 10.05929688 5.1953125 11.15234375 C6 14 6 14 6 17 C2.37 17 -1.26 17 -5 17 C-1.85714286 5.28571429 -1.85714286 5.28571429 0 0 Z " fill="#242423" transform="translate(141,31)"/>
<path d="M0 0 C2 1 2 1 3.0703125 3.6171875 C3.59238281 5.22980469 3.59238281 5.22980469 4.125 6.875 C4.47820312 7.94492188 4.83140625 9.01484375 5.1953125 10.1171875 C6 13 6 13 6 16 C2.7 16 -0.6 16 -4 16 C-4 11.90612678 -3.99238822 10.36420091 -2.5625 6.875 C-2.16224609 5.88113281 -2.16224609 5.88113281 -1.75390625 4.8671875 C-1.50511719 4.25101562 -1.25632813 3.63484375 -1 3 C-0.67 2.01 -0.34 1.02 0 0 Z " fill="#222221" transform="translate(190,91)"/>
<path d="M0 0 C3.96 0 7.92 0 12 0 C12 0.33 12 0.66 12 1 C8.7 1 5.4 1 2 1 C2 3.97 2 6.94 2 10 C6.29 10 10.58 10 15 10 C15 10.66 15 11.32 15 12 C10.05 12 5.1 12 0 12 C0 8.04 0 4.08 0 0 Z " fill="#2F2E2D" transform="translate(91,31)"/>
<path d="M0 0 C3.3 0 6.6 0 10 0 C10 0.33 10 0.66 10 1 C7.36 1 4.72 1 2 1 C2 4.3 2 7.6 2 11 C5.63 11 9.26 11 13 11 C12.67 11.66 12.34 12.32 12 13 C8.04 13 4.08 13 0 13 C0 8.71 0 4.42 0 0 Z " fill="#282726" transform="translate(16,31)"/>
<path d="M0 0 C4.95 0 9.9 0 15 0 C14.67 0.66 14.34 1.32 14 2 C10.04 2 6.08 2 2 2 C2 5.3 2 8.6 2 12 C1.34 12 0.68 12 0 12 C0 8.04 0 4.08 0 0 Z " fill="#3A3937" transform="translate(16,106)"/>
</svg>
